{
  "asset": {
    "version": "2.0",
    "generator": "THREE.GLTFExporter"
  },
  "scenes": [
    {
      "name": "Scene",
      "nodes": [
        4
      ]
    }
  ],
  "scene": 0,
  "nodes": [
    {
      "matrix": [
        3.1704187393188477,
        0,
        0,
        0,
        0,
        0.4321838617324829,
        0,
        0,
        0,
        0,
        1,
        0,
        0,
        0,
        0,
        1
      ],
      "name": "Cube",
      "extras": {
        "name": "Cube"
      },
      "mesh": 0
    },
    {
      "matrix": [
        -0.2908646775532549,
        -0.05518904522473682,
        -0.9551712124420509,
        0,
        -0.7711009254164625,
        0.6045246338968102,
        0.19988339509297365,
        0,
        0.5663931554665306,
        0.7946723905074929,
        -0.21839119484224845,
        0,
        -5.74533748626709,
        5.727193607439616,
        4.170674323696353,
        1
      ],
      "name": "Light",
      "extras": {
        "name": "Light"
      },
      "extensions": {
        "KHR_lights_punctual": {
          "light": 0
        }
      }
    },
    {
      "matrix": [
        0.8826082124228036,
        -0.01296031480921776,
        -0.4699306700650462,
        0,
        -0.1380784266709014,
        0.948382756271571,
        -0.28548996925403247,
        0,
        0.4493741835294362,
        0.3168630786173323,
        0.8352608683992516,
        0,
        11.436,
        9.0693359375,
        21.36296844482422,
        1
      ],
      "name": "abhaycamera",
      "extras": {
        "name": "abhaycamera"
      },
      "camera": 0
    },
    {
      "matrix": [
        -0.2908646775532549,
        -0.05518904522473682,
        -0.9551712124420509,
        0,
        -0.7711009254164625,
        0.6045246338968102,
        0.19988339509297365,
        0,
        0.5663931554665306,
        0.7946723905074929,
        -0.21839119484224845,
        0,
        8.939528465270996,
        4.64464807510376,
        -0.30174827575683594,
        1
      ],
      "name": "Light001",
      "extras": {
        "name": "Light.001"
      },
      "extensions": {
        "KHR_lights_punctual": {
          "light": 1
        }
      }
    },
    {
      "name": "testingModel2.glb",
      "children": [
        0,
        1,
        2,
        3
      ]
    }
  ],
  "bufferViews": [
    {
      "buffer": 0,
      "byteOffset": 0,
      "byteLength": 1008,
      "target": 34962,
      "byteStride": 12
    },
    {
      "buffer": 0,
      "byteOffset": 1008,
      "byteLength": 1008,
      "target": 34962,
      "byteStride": 12
    },
    {
      "buffer": 0,
      "byteOffset": 2016,
      "byteLength": 672,
      "target": 34962,
      "byteStride": 8
    },
    {
      "buffer": 0,
      "byteOffset": 2688,
      "byteLength": 360,
      "target": 34963
    }
  ],
  "buffers": [
    {
      "byteLength": 3048,
      "uri": "data:application/octet-stream;base64,"
    }
  ],
  "accessors": [
    {
      "bufferView": 0,
      "componentType": 5126,
      "count": 84,
      "max": [
        1,
        8.803863525390625,
        1.0000003576278687
      ],
      "min": [
        -1,
        -1,
        -1
      ],
      "type": "VEC3"
    },
    {
      "bufferView": 1,
      "componentType": 5126,
      "count": 84,
      "max": [
        1,
        1,
        1
      ],
      "min": [
        -1,
        -1,
        -1
      ],
      "type": "VEC3"
    },
    {
      "bufferView": 2,
      "componentType": 5126,
      "count": 84,
      "max": [
        0.875,
        1
      ],
      "min": [
        0.125,
        0
      ],
      "type": "VEC2"
    },
    {
      "bufferView": 3,
      "componentType": 5123,
      "count": 180,
      "max": [
        83
      ],
      "min": [
        0
      ],
      "type": "SCALAR"
    }
  ],
  "materials": [
    {
      "pbrMetallicRoughness": {
        "baseColorFactor": [
          0.06662593863608139,
          0.76052450467022,
          0.7991027380100881,
          1
        ],
        "metallicFactor": 0,
        "roughnessFactor": 0.5
      },
      "doubleSided": true,
      "name": "Material"
    }
  ],
  "meshes": [
    {
      "primitives": [
        {
          "mode": 4,
          "attributes": {
            "POSITION": 0,
            "NORMAL": 1,
            "TEXCOORD_0": 2
          },
          "indices": 3,
          "material": 0
        }
      ]
    }
  ],
  "extensions": {
    "KHR_lights_punctual": {
      "lights": [
        {
          "name": "Light",
          "color": [
            1,
            1,
            1
          ],
          "intensity": 50,
          "type": "point"
        },
        {
          "name": "Light001",
          "color": [
            1,
            1,
            1
          ],
          "intensity": 50,
          "type": "point"
        }
      ]
    }
  },
  "cameras": [
    {
      "type": "perspective",
      "perspective": {
        "aspectRatio": 1.7777777777777777,
        "yfov": 0.38117990863556156,
        "zfar": 100.14,
        "znear": 0
      },
      "name": "PerspectiveCamera"
    }
  ],
  "extensionsUsed": [
    "KHR_lights_punctual"
  ]
}